<svg width="536" height="329" viewBox="0 0 536 329" fill="none" xmlns="http://www.w3.org/2000/svg">
<g clip-path="url(#clip0)">
<path d="M187.201 284.418L186.274 283.907C185.291 283.358 184.931 282.127 185.461 281.143L189.715 273.381C190.264 272.396 191.493 272.037 192.476 272.567L193.8 273.286C193.989 273.4 194.065 273.627 193.951 273.835C193.838 274.025 193.611 274.1 193.403 273.987L192.079 273.267C191.474 272.945 190.718 273.154 190.396 273.76L186.142 281.521C185.82 282.127 186.028 282.884 186.633 283.206L187.56 283.717C188.165 284.039 188.921 283.831 189.243 283.225L192.06 278.076C192.174 277.886 192.401 277.811 192.609 277.924C192.798 278.038 192.873 278.265 192.76 278.473L189.942 283.623C189.432 284.588 188.184 284.967 187.201 284.418Z" fill="#AFCDFB"/>
<path d="M183.268 292.577L181.604 291.668C180.072 290.816 179.543 288.791 180.451 287.144L186.842 275.463C186.955 275.274 187.182 275.198 187.39 275.312C187.579 275.426 187.655 275.653 187.542 275.861L181.15 287.541C180.451 288.81 180.829 290.343 181.982 290.987L183.646 291.895C184.8 292.52 186.294 292.009 186.993 290.741L194.273 277.451C194.973 276.183 194.595 274.649 193.441 274.006C193.252 273.892 193.177 273.665 193.29 273.457C193.403 273.267 193.63 273.192 193.838 273.305C195.37 274.157 195.899 276.183 194.992 277.83L187.712 291.119C186.785 292.766 184.8 293.41 183.268 292.577Z" fill="#AFCDFB"/>
<path opacity="0.6" d="M342.921 329H139.079C134.075 329 130 323.062 130 315.71V65.2893C130 57.9648 134.056 51.9998 139.079 51.9998H342.921C347.925 51.9998 352 57.9371 352 65.2893V315.738C352 323.062 347.944 329 342.921 329Z" fill="white"/>
<path d="M351.92 73.2055H130.455V59.0074C130.455 55.278 133.481 52.249 137.206 52.249H345.169C348.894 52.249 351.92 55.278 351.92 59.0074V73.2055Z" fill="#699DEE"/>
<path d="M139.398 62.5855C139.398 61.2036 140.514 60.0867 141.894 60.0867C143.275 60.0867 144.391 61.2036 144.391 62.5855C144.391 63.9675 143.275 65.0844 141.894 65.0844C140.533 65.1033 139.398 63.9675 139.398 62.5855Z" fill="#DDE7FE"/>
<path d="M149.912 62.5855C149.912 61.2036 151.028 60.0867 152.408 60.0867C153.788 60.0867 154.904 61.2036 154.904 62.5855C154.904 63.9675 153.788 65.0844 152.408 65.0844C151.047 65.1033 149.912 63.9675 149.912 62.5855Z" fill="#DDE7FE"/>
<path d="M160.426 62.5855C160.426 61.2036 161.541 60.0867 162.922 60.0867C164.302 60.0867 165.418 61.2036 165.418 62.5855C165.418 63.9675 164.302 65.0844 162.922 65.0844C161.56 65.1033 160.426 63.9675 160.426 62.5855Z" fill="#DDE7FE"/>
<path opacity="0.5" d="M210.781 89.8459H148.002V152.697H210.781V89.8459Z" fill="#CDE0FB"/>
<path opacity="0.5" d="M277.795 94.5218H227.856C226.551 94.5218 225.492 93.4617 225.492 92.1554C225.492 90.8492 226.551 89.7891 227.856 89.7891H277.795C279.1 89.7891 280.159 90.8492 280.159 92.1554C280.159 93.4617 279.1 94.5218 277.795 94.5218Z" fill="#7C9AF2"/>
<path opacity="0.5" d="M337.51 91.3413H287.571C286.266 91.3413 285.207 90.2812 285.207 88.975C285.207 87.6688 286.266 86.6086 287.571 86.6086H337.51C338.815 86.6086 339.874 87.6688 339.874 88.975C339.874 90.2812 338.815 91.3413 337.51 91.3413Z" fill="#7C9AF2"/>
<g opacity="0.3">
<path opacity="0.3" d="M287.666 112.809H227.005C226.154 112.809 225.474 112.127 225.474 111.276C225.474 110.424 226.154 109.742 227.005 109.742H287.666C288.517 109.742 289.198 110.424 289.198 111.276C289.217 112.127 288.517 112.809 287.666 112.809Z" fill="#BDD1F9"/>
<path opacity="0.3" d="M310.735 112.809H294.719C293.868 112.809 293.188 112.127 293.188 111.276C293.188 110.424 293.868 109.742 294.719 109.742H310.735C311.586 109.742 312.267 110.424 312.267 111.276C312.267 112.127 311.586 112.809 310.735 112.809Z" fill="#BDD1F9"/>
<path opacity="0.3" d="M249.905 122.369H227.025C226.174 122.369 225.493 121.688 225.493 120.836C225.493 119.984 226.174 119.302 227.025 119.302H249.905C250.756 119.302 251.437 119.984 251.437 120.836C251.437 121.669 250.756 122.369 249.905 122.369Z" fill="#BDD1F9"/>
<path opacity="0.3" d="M286.966 122.369H255.615C254.764 122.369 254.083 121.688 254.083 120.836C254.083 119.984 254.764 119.302 255.615 119.302H286.966C287.817 119.302 288.498 119.984 288.498 120.836C288.517 121.669 287.817 122.369 286.966 122.369Z" fill="#BDD1F9"/>
<path opacity="0.3" d="M310.735 122.369H294.719C293.868 122.369 293.188 121.688 293.188 120.836C293.188 119.984 293.868 119.302 294.719 119.302H310.735C311.586 119.302 312.267 119.984 312.267 120.836C312.267 121.669 311.586 122.369 310.735 122.369Z" fill="#BDD1F9"/>
<path opacity="0.3" d="M258.074 130.623H227.025C226.174 130.623 225.493 129.941 225.493 129.09C225.493 128.238 226.174 127.556 227.025 127.556H258.074C258.925 127.556 259.605 128.238 259.605 129.09C259.605 129.923 258.925 130.623 258.074 130.623Z" fill="#BDD1F9"/>
<path opacity="0.3" d="M317.373 130.623H266.582C265.732 130.623 265.051 129.941 265.051 129.09C265.051 128.238 265.732 127.556 266.582 127.556H317.373C318.223 127.556 318.904 128.238 318.904 129.09C318.904 129.923 318.223 130.623 317.373 130.623Z" fill="#BDD1F9"/>
</g>
<g opacity="0.3">
<path opacity="0.3" d="M287.666 143.155H227.005C226.154 143.155 225.474 142.474 225.474 141.622C225.474 140.77 226.154 140.088 227.005 140.088H287.666C288.517 140.088 289.198 140.77 289.198 141.622C289.217 142.455 288.517 143.155 287.666 143.155Z" fill="#BDD1F9"/>
<path opacity="0.3" d="M310.735 143.155H294.719C293.868 143.155 293.188 142.474 293.188 141.622C293.188 140.77 293.868 140.088 294.719 140.088H310.735C311.586 140.088 312.267 140.77 312.267 141.622C312.267 142.455 311.586 143.155 310.735 143.155Z" fill="#BDD1F9"/>
<path opacity="0.3" d="M249.905 152.696H227.025C226.174 152.696 225.493 152.015 225.493 151.163C225.493 150.311 226.174 149.63 227.025 149.63H249.905C250.756 149.63 251.437 150.311 251.437 151.163C251.437 152.015 250.756 152.696 249.905 152.696Z" fill="#BDD1F9"/>
<path opacity="0.3" d="M286.966 152.696H255.615C254.764 152.696 254.083 152.015 254.083 151.163C254.083 150.311 254.764 149.63 255.615 149.63H286.966C287.817 149.63 288.498 150.311 288.498 151.163C288.517 152.015 287.817 152.696 286.966 152.696Z" fill="#BDD1F9"/>
</g>
<path d="M176.158 99.2168H182.644L200.154 139.35H192.76L188.714 129.733H169.88L165.777 139.35H158.61L176.158 99.2168ZM186.161 123.524L179.278 107.584L172.452 123.524H186.161Z" fill="#BDD1F9"/>
<path d="M183.079 165.361H148.002V172.138H183.079V165.361Z" fill="#F99746"/>
<path d="M183.079 172.138H148.002V178.916H183.079V172.138Z" fill="#ED7D2B"/>
<path d="M183.079 178.916H148.002V185.693H183.079V178.916Z" fill="#474FEA"/>
<path d="M208.909 169.185H189.622C188.809 169.185 188.166 168.523 188.166 167.728C188.166 166.914 188.828 166.27 189.622 166.27H208.909C209.723 166.27 210.365 166.933 210.365 167.728C210.365 168.542 209.723 169.185 208.909 169.185Z" fill="#BDD1F9"/>
<path d="M202.404 174.353H189.602C188.789 174.353 188.146 173.691 188.146 172.896C188.146 172.082 188.808 171.438 189.602 171.438H202.404C203.217 171.438 203.86 172.101 203.86 172.896C203.879 173.691 203.217 174.353 202.404 174.353Z" fill="#BDD1F9"/>
<path d="M183.079 200.402H148.002V214.26H183.079V200.402Z" fill="#F99746"/>
<path d="M183.079 210.833H148.002V220.734H183.079V210.833Z" fill="#B5453C"/>
<path d="M148.002 200.402L160.577 210.985L148.002 220.734V200.402Z" fill="#474FEA"/>
<path d="M208.909 204.245H189.622C188.809 204.245 188.166 203.583 188.166 202.788C188.166 201.973 188.828 201.33 189.622 201.33H208.909C209.723 201.33 210.365 201.992 210.365 202.788C210.365 203.583 209.723 204.245 208.909 204.245Z" fill="#BDD1F9"/>
<path d="M202.404 209.394H189.602C188.789 209.394 188.146 208.732 188.146 207.937C188.146 207.123 188.808 206.479 189.602 206.479H202.404C203.217 206.479 203.86 207.142 203.86 207.937C203.879 208.751 203.217 209.394 202.404 209.394Z" fill="#BDD1F9"/>
<path d="M415.839 294.945H536.459V252.361H415.466C406.059 252.361 398.421 259.996 398.421 269.401V277.532C398.421 287.154 406.245 294.945 415.839 294.945Z" fill="#FCECDB"/>
<path d="M295.497 269.897V276.291C295.497 279.705 296.428 282.933 298.043 285.664C301.272 291.22 307.295 294.945 314.188 294.945H540.152C541.643 294.945 542.854 293.734 542.854 292.244V291.282C542.854 289.792 541.643 288.582 540.152 288.582H402.394C401.649 287.682 400.997 286.72 400.469 285.664C399.165 283.243 398.451 280.45 398.451 277.532V269.401C398.451 267.911 398.637 266.452 399.01 265.055C399.631 262.697 400.717 260.555 402.208 258.724H540.152C541.643 258.724 542.854 257.513 542.854 256.024V255.061C542.854 253.572 541.643 252.361 540.152 252.361H313.039C305.029 252.361 298.291 257.731 296.18 265.055C295.745 266.607 295.497 268.221 295.497 269.897Z" fill="#5E85BC"/>
<path d="M296.18 265.055H398.979C399.6 262.697 400.686 260.555 402.177 258.724H540.152C541.643 258.724 542.854 257.513 542.854 256.023V255.061C542.854 253.572 541.643 252.361 540.152 252.361H313.039C305.029 252.361 298.26 257.731 296.18 265.055Z" fill="#48719D"/>
<path d="M536.459 273.653L519.724 274.367L536.459 274.801V273.653Z" fill="#F4D2B8"/>
<path d="M536.459 280.357L496.656 281.071L536.459 281.506V280.357Z" fill="#F4D2B8"/>
<path d="M507.677 328H379.295V294.852H508.733C517.581 294.852 524.784 302.021 524.784 310.898C524.784 320.333 517.115 328 507.677 328Z" fill="#B7BF46"/>
<path d="M386.683 328H240.573V294.852H387.055C396.059 294.852 403.355 302.145 403.355 311.146V311.27C403.355 320.52 395.904 328 386.683 328Z" fill="#FCECDB"/>
<path d="M413.107 327.999H235.483C234.117 327.999 233 326.882 233 325.516C233 324.151 234.117 323.033 235.483 323.033H413.107C414.473 323.033 415.591 324.151 415.591 325.516C415.591 326.882 414.473 327.999 413.107 327.999Z" fill="#B7BF46"/>
<path d="M413.107 299.818H235.483C234.117 299.818 233 298.7 233 297.335C233 295.969 234.117 294.852 235.483 294.852H413.107C414.473 294.852 415.591 295.969 415.591 297.335C415.591 298.7 414.473 299.818 413.107 299.818Z" fill="#B7BF46"/>
<path d="M240.575 311.426L260.29 311.984L240.575 312.326V311.426Z" fill="#F4D2B8"/>
<path d="M240.574 303.79L287.518 304.349L240.574 304.69V303.79Z" fill="#F4D2B8"/>
<path d="M287.021 304.257C287.021 304.257 285.002 305.685 284.35 308.013C284.226 308.416 284.164 308.851 284.133 309.316C284.009 312.42 284.133 319.466 284.133 319.466L278.203 315.958L272.273 319.466V309.937C272.273 308.137 272.77 306.368 273.732 305.219C274.198 304.661 274.757 304.257 275.378 304.257H287.021Z" fill="#C164D7"/>
<path d="M287.021 304.256C287.021 304.256 285.002 305.684 284.35 308.012L272.459 308.136C272.459 308.136 272.925 304.784 275.378 304.225H287.021V304.256Z" fill="#C164D7"/>
<path d="M401.618 252.454H270.442V203.819H402.053C412.547 203.819 421.085 212.323 421.085 222.845V233.025C421.054 243.764 412.361 252.454 401.618 252.454Z" fill="#FCECDB"/>
<path d="M417.981 222.689V233.149C417.95 237.618 415.466 241.498 411.833 243.578C410.033 244.602 407.983 245.192 405.779 245.192H263.332C261.656 245.192 260.321 246.557 260.321 248.202V249.444C260.321 251.12 261.687 252.454 263.332 252.454H509.416C516.464 252.454 522.704 248.947 526.492 243.578C528.883 240.195 530.249 236.067 530.249 231.628V223.372C530.249 220.331 529.566 217.444 528.293 214.868C525.126 208.319 518.42 203.819 510.658 203.819H263.301C261.625 203.819 260.29 205.184 260.29 206.829V208.071C260.29 209.747 261.656 211.081 263.301 211.081H406.214C409.629 211.081 412.734 212.54 414.876 214.868C416.77 216.916 417.95 219.648 417.981 222.689Z" fill="#D63344"/>
<path d="M270.441 228.121L288.697 228.959L270.441 229.456V228.121Z" fill="#F4D2B8"/>
<path d="M270.442 216.947L313.878 217.754L270.442 218.251V216.947Z" fill="#F4D2B8"/>
<path d="M313.442 217.599C313.442 217.599 310.586 219.151 309.624 221.665C309.468 222.1 309.344 222.596 309.313 223.093C309.158 226.476 309.313 234.08 309.313 234.08L300.837 230.262L292.392 234.08V223.745C292.392 221.789 293.106 219.896 294.472 218.654C295.124 218.065 295.9 217.599 296.801 217.599H313.442Z" fill="#F99746"/>
<path d="M313.442 217.599C313.442 217.599 310.586 219.151 309.624 221.665L292.671 221.82C292.671 221.82 293.323 218.189 296.832 217.599H313.442Z" fill="#ED7D2B"/>
<path d="M387.262 242.614C391.773 250.458 397.438 253.476 397.438 253.476H421.014C421.033 253.494 383.833 236.633 387.262 242.614Z" fill="#233862"/>
<path d="M405.378 303.296C405.993 304.004 406.068 304.786 405.77 305.624C405.77 305.624 405.77 305.624 405.77 305.643C405.21 307.189 403.347 308.941 401.185 310.674C400.905 310.897 400.663 311.102 400.458 311.288C400.402 311.344 400.346 311.381 400.29 311.437C400.253 311.475 400.197 311.512 400.16 311.549C398.147 313.412 398.911 313.822 395.295 317.586C391.177 321.871 388.325 321.945 387.524 321.554C386.834 321.219 388.232 318.946 389.76 316.393C389.835 316.263 389.909 316.151 389.984 316.021C390.189 315.685 390.394 315.331 390.599 314.996C392.407 311.922 391.941 310.469 391.512 305.904C391.158 302.178 385.716 285.112 385.716 285.112L393.618 283.751C393.618 283.751 396.004 297.334 398.613 299.439C400.011 300.557 401.576 300.575 402.937 301.395C403.03 301.451 403.123 301.507 403.216 301.581C403.98 302.066 404.763 302.588 405.378 303.296Z" fill="#FFB27D"/>
<path d="M405.378 303.295C405.993 304.003 406.068 304.786 405.77 305.624C405.77 305.624 405.77 305.624 405.77 305.643C405.08 307.189 403.272 308.922 401.185 310.655C400.905 310.878 400.663 311.083 400.458 311.288C400.402 311.344 400.346 311.381 400.29 311.437C400.253 311.475 400.197 311.512 400.16 311.549C398.147 313.412 398.911 313.822 395.295 317.586C391.177 321.871 388.325 321.945 387.524 321.554C386.834 321.219 388.232 318.946 389.76 316.393C390.562 316.095 394.289 314.586 397.103 310.972C399.582 307.804 401.241 303.743 402.937 301.376C403.03 301.432 403.123 301.488 403.216 301.563C403.98 302.066 404.763 302.587 405.378 303.295Z" fill="#583039"/>
<path d="M341.675 298.358C341.191 300.799 337.706 300.389 333.829 299.439C329.953 298.489 330.866 299.625 325.331 299.01C319.795 298.396 318.137 296.346 317.95 295.508C317.801 294.781 320.522 294.52 323.467 294.185C323.84 294.148 324.212 294.092 324.566 294.054C327.865 293.645 330.288 291.502 333.307 289.751C336.159 288.092 340.408 281.329 340.408 281.329L347.993 281.926C347.993 281.926 344.024 287.962 342.477 290.589C341.564 292.135 341.62 294.185 341.731 295.75C341.787 296.626 341.843 297.501 341.675 298.358Z" fill="#FFB27D"/>
<path d="M333.811 299.439C329.934 298.489 330.847 299.625 325.312 299.01C319.777 298.395 318.118 296.346 317.932 295.508C317.783 294.781 320.504 294.52 323.448 294.185L323.467 294.241C323.467 294.241 326.784 296.588 331.388 296.7C335.134 296.793 339.104 295.713 341.694 295.75C341.75 296.607 341.806 297.483 341.638 298.34C341.172 300.799 337.706 300.389 333.811 299.439Z" fill="#583039"/>
<path d="M370.731 249.899L377.814 268.958L387.058 293.85C387.058 293.85 389.574 294.092 391.978 293.403C394.196 292.769 396.73 291.092 396.73 291.092C396.73 291.092 394.158 264.357 389.369 249.023C388.139 245.092 386.759 241.906 385.25 240.099C377.814 231.324 370.731 249.899 370.731 249.899Z" fill="#583039"/>
<path d="M377.925 219.623C382.566 218.132 395.817 220.051 409.105 222.66L411.882 218.077L440.621 215.841C440.621 215.841 450.107 236.857 444.908 250.253C444.143 252.228 442.634 253.476 440.043 253.532C440.043 253.532 439.633 253.532 439.615 253.532C439.615 253.532 422.506 253.513 416.952 253.513C402.657 253.513 386.703 243.694 384.653 243.285C381.28 242.614 379.919 249.358 376.546 256.457C373.173 263.555 344.788 287.85 344.788 287.85C344.788 287.85 340.427 287.888 338.619 287.217C336.681 286.49 335.973 285.54 335.973 285.54C335.973 285.54 367.451 222.995 377.925 219.623Z" fill="#6C3E4B"/>
<path d="M412.069 178.485C422.301 184.112 443.063 195.794 443.175 195.719C443.175 195.719 450.797 198.588 455.14 195.719C462.352 190.931 466.229 178.038 453.034 166.953C446.455 161.419 441.777 160.078 441.069 151.247C440.659 146.458 434.117 130.64 423.233 132.094C422.319 132.224 416.728 132.485 413.038 134.404C403.645 139.341 396.73 176.305 412.069 178.485Z" fill="#67392C"/>
<path d="M420.642 173.697C420.604 173.734 425.674 175.467 429.066 173.958C432.253 172.542 434.675 167.288 434.638 167.288C433.184 167.213 431.582 165.947 430.352 157.618L429.736 157.842L419.337 161.587C419.337 161.587 420.082 164.922 420.586 168.108C420.996 170.772 421.219 173.324 420.642 173.697Z" fill="#FFB27D"/>
<path d="M419.337 161.587C419.337 161.587 420.082 164.922 420.586 168.108C426.568 167.027 428.916 161.084 429.755 157.842L419.337 161.587Z" fill="#ED975D"/>
<path d="M417.79 164.903C417.79 164.903 432.029 162.984 430.705 154.153C429.382 145.303 430.314 139.099 421.182 139.956C412.031 140.794 410.782 144.446 410.503 147.502C410.223 150.538 414.062 165.164 417.79 164.903Z" fill="#FFB27D"/>
<path d="M411.024 142.639C411.024 142.639 420.138 150.483 426.344 151.116C432.55 151.75 434.899 149.756 434.899 149.756C434.899 149.756 431.227 146.719 429.028 141.838C428.376 140.385 427.015 139.397 425.431 139.267C420.995 138.876 412.609 138.708 411.024 142.639Z" fill="#67392C"/>
<path d="M416.709 141.931C416.709 141.931 413.652 144.875 412.702 147.073C411.77 149.178 411.49 154.228 412.236 156.24C412.236 156.24 407.483 146.999 410.167 142.527C413.037 137.739 416.709 141.931 416.709 141.931Z" fill="#67392C"/>
<path d="M408.658 194.676C409.087 223.48 408.77 217.462 411.919 220.201C412.684 220.853 414.808 221.244 417.622 221.43C426.456 222.008 442 220.555 442.578 218.934C444.609 213.288 443.174 211.537 444.87 202.874C445.056 201.961 445.261 200.954 445.522 199.874C446.939 193.931 448.318 191.918 443.286 182.361C438.72 173.716 433.986 166.692 433.557 166.953C421.518 174.088 420.548 168.089 420.548 168.089C420.548 168.089 408.453 180.609 408.658 194.676Z" fill="white"/>
<path d="M377.813 268.958L387.058 293.85C387.058 293.85 389.574 294.092 391.978 293.402C394.196 292.769 396.73 291.092 396.73 291.092C396.73 291.092 394.158 264.356 389.369 249.023L377.813 268.958Z" fill="#6C3E4B"/>
<path d="M420.586 168.089C420.586 168.089 408.192 170.194 406.739 175.523C405.285 180.851 396.73 212.189 396.73 212.189C396.73 212.189 403.03 213.326 405.937 210.419C408.845 207.513 416.057 183.441 416.057 183.441L420.586 168.089Z" fill="white"/>
<path d="M417.641 221.43C426.475 222.008 442.018 220.554 442.596 218.934C444.627 213.288 443.192 211.537 444.888 202.873L440.639 190.875C440.639 190.875 441.347 204.234 437.396 207.755C433.464 211.276 421.256 214.537 419.337 217.48C418.423 218.878 417.808 220.294 417.641 221.43Z" fill="#EBF3FF"/>
<path d="M427.761 215.803C427.761 215.803 419.039 213.866 417.641 214.63C416.243 215.412 412.795 218.226 412.367 219.194C411.938 220.182 415.498 218.449 416.653 218.132C417.399 217.927 419.374 218.617 420.362 218.952C424.481 220.331 426.997 219.623 426.997 219.623L427.761 215.803Z" fill="#FFB27D"/>
<path d="M433.595 166.953C433.595 166.953 445.299 167.679 449.362 173.324C455.065 181.28 466.378 215.17 459.892 219.698C452.586 224.784 426.643 221.02 426.643 221.02C426.643 221.02 425.786 216.996 426.978 215.04C428.171 213.083 447.703 209.935 448.598 209.04C449.492 208.146 437.341 191.49 437.341 188.788C437.341 186.087 433.595 166.953 433.595 166.953Z" fill="white"/>
<path d="M417.212 217.071C417.212 217.071 415.386 219.418 414.79 219.716C414.193 219.996 413.802 219.921 413.802 219.921L415.032 217.704L417.212 217.071Z" fill="#FFB27D"/>
<path d="M417.641 214.648L412.329 217.22C412.329 217.22 412.553 217.592 413.205 217.555C413.857 217.518 415.516 216.921 415.516 216.921L417.641 214.648Z" fill="#FFB27D"/>
<path d="M414.789 223.312H372.781L360.126 191.9H402.078L414.789 223.312Z" fill="#F99746"/>
<path d="M372.277 222.083H427.761V223.312H372.781L372.277 222.083Z" fill="#ED7D2B"/>
<path d="M383.385 207.606C383.068 206.507 383.702 205.613 384.82 205.613C385.92 205.613 387.075 206.507 387.392 207.606C387.709 208.705 387.075 209.6 385.957 209.6C384.839 209.6 383.702 208.705 383.385 207.606Z" fill="white"/>
<path d="M354.15 69.3438C354.15 69.3438 355.058 80.248 352.581 80.0776C350.104 79.9072 345.206 75.1177 335.317 75.8938C325.427 76.67 313.344 78.8471 306.046 65.8983C298.747 52.9496 315.387 49.2202 315.387 49.2202L354.15 69.3438Z" fill="#233862"/>
<path d="M333.142 68.5487L382.949 72.6567L383.97 70.4228L336.244 35.1546L288.025 29.5132L287.099 31.5009L333.142 68.5487Z" fill="#2B478B"/>
<path d="M367.046 106.089C366.743 105.066 365.684 104.461 364.663 104.763C363.642 105.066 363.037 106.126 363.34 107.149C363.623 108.171 364.701 108.777 365.722 108.474C366.743 108.19 367.329 107.111 367.046 106.089Z" fill="#F99746"/>
<path d="M365.382 106.619C367.387 106.467 367.84 124.66 367.84 124.66C367.84 124.66 366.536 125.266 365.893 125.133C365.25 124.982 364.928 122.54 364.928 122.54L364.872 125.114C364.872 125.114 362.678 125.19 361.922 124.66C361.922 124.641 362.224 106.865 365.382 106.619Z" fill="#F99746"/>
<path d="M366.025 107.035L365.666 67.2993L365.401 67.0911L339.401 47.8384L338.475 49.1067L364.21 68.1702L364.796 106.96L366.025 107.035Z" fill="#F99746"/>
<path d="M93.8957 146.995C94.6521 128.291 78.9953 120 62.9981 120C47.0009 120 29.5855 124.146 28.0728 149.002C27.1084 164.998 35.6176 174.843 60.1428 174.843C68.4061 174.843 74.8352 173.536 79.7705 171.208L92.0237 182.112L85.9917 167.043C91.324 162.064 93.5742 155.06 93.8957 146.995Z" fill="#F34965"/>
<path d="M50.84 140.748V145.121H53.6953V140.748H54.8487V150.933H53.6953V146.181H50.84V150.933H49.6865V140.748H50.84Z" fill="white"/>
<path d="M57.326 147.374C57.326 149.626 58.2147 150.1 59.0467 150.1C59.5572 150.1 59.9732 149.986 60.2569 149.835L60.446 150.687C60.03 150.895 59.4249 151.027 58.8387 151.027C57.0801 151.027 56.1914 149.589 56.1914 147.355C56.1914 144.988 57.1936 143.512 58.6685 143.512C60.1434 143.512 60.7485 145.083 60.7485 146.711C60.7485 146.995 60.7296 147.203 60.7107 147.374H57.326ZM59.6329 146.522C59.6518 145.064 59.1034 144.42 58.5551 144.42C57.7798 144.42 57.4016 145.518 57.3638 146.522H59.6329Z" fill="white"/>
<path d="M61.9971 140.464H63.1505V150.914H61.9971V140.464Z" fill="white"/>
<path d="M64.8711 140.464H66.0246V150.914H64.8711V140.464Z" fill="white"/>
<path d="M72.2453 147.279C72.2453 150.1 70.9406 151.065 69.806 151.065C68.5013 151.065 67.4424 149.873 67.4424 147.298C67.4424 144.648 68.6337 143.512 69.8817 143.512C71.2053 143.512 72.2453 144.723 72.2453 147.279ZM68.6148 147.279C68.6148 148.491 68.8228 150.138 69.8817 150.138C70.8839 150.138 71.0919 148.434 71.0919 147.279C71.0919 146.162 70.8839 144.439 69.8628 144.439C68.8038 144.439 68.6148 146.162 68.6148 147.279Z" fill="white"/>
<path d="M386.466 154.514C387.147 137.419 372.852 129.828 358.216 129.828C343.58 129.828 327.659 133.614 326.278 156.35C325.39 170.965 333.18 179.976 355.588 179.976C363.151 179.976 369.032 178.783 373.533 176.644L384.746 186.621L379.243 172.839C384.103 168.296 386.164 161.897 386.466 154.514Z" fill="#F34965"/>
<path d="M341.273 151.561C341.689 151.466 342.162 151.39 342.711 151.39C343.486 151.39 344.148 151.561 344.62 151.996C344.999 152.337 345.188 152.848 345.188 153.473C345.188 154.363 344.696 155.044 343.864 155.385V155.423C344.866 155.688 345.452 156.502 345.452 157.619C345.452 158.338 345.225 158.906 344.847 159.322C344.356 159.871 343.561 160.099 342.578 160.099C341.954 160.099 341.576 160.061 341.292 160.004V151.561H341.273ZM342.238 155.082H342.692C343.505 155.082 344.185 154.476 344.185 153.567C344.185 152.772 343.807 152.167 342.767 152.167C342.54 152.167 342.351 152.185 342.238 152.223V155.082ZM342.238 159.266C342.351 159.285 342.521 159.322 342.729 159.322C343.732 159.322 344.393 158.717 344.393 157.619C344.393 156.426 343.58 155.858 342.654 155.858H342.219V159.266H342.238Z" fill="white"/>
<path d="M350.388 156.956C350.388 159.341 349.291 160.155 348.327 160.155C347.211 160.155 346.322 159.152 346.322 156.975C346.322 154.722 347.324 153.776 348.383 153.776C349.499 153.757 350.388 154.798 350.388 156.956ZM347.306 156.956C347.306 157.978 347.476 159.379 348.383 159.379C349.234 159.379 349.404 157.94 349.404 156.956C349.404 156.009 349.234 154.552 348.364 154.552C347.476 154.552 347.306 156.009 347.306 156.956Z" fill="white"/>
<path d="M351.484 155.46C351.484 154.741 351.447 154.362 351.428 153.87H352.279L352.335 154.628H352.354C352.619 154.135 353.13 153.776 353.772 153.776C354.623 153.776 355.266 154.4 355.266 155.896V160.042H354.283V156.066C354.283 155.328 354.151 154.59 353.432 154.59C353.016 154.59 352.619 154.93 352.506 155.593C352.468 155.744 352.449 155.934 352.449 156.161V160.042H351.466V155.46H351.484Z" fill="white"/>
<path d="M355.606 161.821C355.89 161.746 356.23 161.651 356.438 161.329C356.646 160.988 356.741 160.534 356.741 159.36V153.852H357.724V159.644C357.724 160.951 357.535 161.556 357.1 162.011C356.722 162.389 356.136 162.579 355.739 162.598L355.606 161.821ZM357.8 152.261C357.8 152.64 357.573 152.905 357.214 152.905C356.873 152.905 356.646 152.64 356.646 152.261C356.646 151.883 356.911 151.618 357.233 151.618C357.573 151.618 357.8 151.864 357.8 152.261Z" fill="white"/>
<path d="M362.849 156.956C362.849 159.341 361.752 160.155 360.788 160.155C359.672 160.155 358.783 159.152 358.783 156.975C358.783 154.722 359.785 153.776 360.844 153.776C361.96 153.757 362.849 154.798 362.849 156.956ZM359.766 156.956C359.766 157.978 359.937 159.379 360.844 159.379C361.695 159.379 361.865 157.94 361.865 156.956C361.865 156.009 361.695 154.552 360.825 154.552C359.937 154.552 359.766 156.009 359.766 156.956Z" fill="white"/>
<path d="M367.652 158.357C367.652 159.038 367.69 159.587 367.708 160.042H366.858L366.782 159.398H366.763C366.593 159.701 366.12 160.155 365.439 160.155C364.362 160.155 363.927 159.303 363.927 157.77V153.851H364.91V157.619C364.91 158.584 365.061 159.303 365.742 159.303C366.309 159.303 366.574 158.773 366.631 158.489C366.669 158.319 366.687 158.13 366.687 157.921V153.851H367.671V158.357H367.652Z" fill="white"/>
<path d="M369.014 155.46C369.014 154.93 368.976 154.325 368.957 153.87H369.846L369.902 154.855H369.921C370.129 154.268 370.64 153.776 371.226 153.776C371.302 153.776 371.359 153.776 371.434 153.795V154.798C371.377 154.798 371.302 154.798 371.226 154.798C370.602 154.798 370.148 155.366 370.035 156.085C370.016 156.256 369.997 156.445 369.997 156.653V160.08H369.014V155.46Z" fill="white"/>
<path d="M205.246 307.352L205.242 327.173L304.799 327.193L304.803 307.372L205.246 307.352Z" fill="#C65447"/>
<path d="M205.24 327.164L190.605 320.898L182.096 317.244L190.813 313.514L205.24 307.343C205.24 307.343 207.169 312.17 207.188 316.714C207.245 323.832 205.24 327.164 205.24 327.164Z" fill="#FCECDB"/>
<path d="M316.37 313.95V320.216C316.37 324.078 313.25 327.202 309.392 327.183H304.778V307.362H309.789C313.439 307.381 316.37 310.315 316.37 313.95Z" fill="#FCECDB"/>
<path d="M190.813 313.533C191.172 315.54 191.494 318.607 190.605 320.898L182.096 317.244L190.813 313.533Z" fill="#2B478B"/>
<path d="M226.646 204.189C226.646 204.189 228.423 211.931 233.623 211.931C238.086 211.931 244.193 201.841 244.193 201.841L226.646 204.189Z" fill="#F99746"/>
<path d="M286.323 318.607L282.977 320.897C282.977 320.897 266.923 303.765 263.046 287.333C262.347 284.399 262.082 281.502 262.366 278.757C262.366 278.757 262.139 278.019 261.723 276.694C261.704 276.637 261.685 276.58 261.666 276.523C261.496 275.956 261.269 275.274 261.023 274.498C260.248 272.018 259.17 268.61 257.96 264.748C255.161 255.851 248.732 235.765 245.99 227.417L265.712 220.28C265.712 220.28 267.944 225.391 271.177 239.286C271.669 241.104 272.161 243.11 272.633 245.287C273.163 247.767 273.654 250.475 274.051 253.39C274.751 258.35 275.205 263.916 275.243 270.03C275.262 272.51 275.186 275.104 275.054 277.754C274.94 279.704 275.243 282.297 275.772 285.27C278.249 298.805 286.323 318.607 286.323 318.607Z" fill="#6C3E4B"/>
<path d="M296.836 326.861H280.896C280.896 326.861 280.291 324.324 281.35 322.582C282.276 321.049 281.917 320.178 281.236 318.91C281.955 319.213 282.9 319.478 283.921 319.421C284.715 319.383 285.547 319.023 286.285 318.588C286.966 319.364 289.915 322.696 290.823 323.358C291.863 324.116 296.515 323.851 296.836 326.861Z" fill="#233862"/>
<path d="M274.051 253.409L261.666 276.524C261.496 275.956 261.269 275.274 261.023 274.498C260.248 272.018 259.17 268.61 257.96 264.748C255.161 255.851 248.732 235.765 245.99 227.417L265.712 220.28C265.712 220.28 267.944 225.391 271.177 239.286C271.669 241.104 272.16 243.11 272.633 245.288C273.163 247.786 273.654 250.494 274.051 253.409Z" fill="#583039"/>
<path d="M245.669 321.863C245.669 321.863 244.572 324.57 245.612 326.861H254.291C254.291 326.861 254.48 324.797 251.323 322.412C248.94 320.595 245.669 321.863 245.669 321.863Z" fill="#233862"/>
<path d="M255.123 145.408C255.123 144.973 255.35 140.316 262.422 139.899C262.422 139.899 258.942 140.391 258.394 141.944C258.394 141.944 260.72 139.994 262.668 140.562C264.615 141.13 265.825 144.48 265.863 145.597C265.901 146.714 264.918 150.33 263.708 150.652C263.254 150.784 262.705 150.766 262.233 150.69C262.573 151.182 262.894 151.75 263.216 152.375C266.185 158.111 263.632 164.869 261.212 164.301C259.661 163.941 258.734 166.611 258.734 166.611L243.891 153.832C243.872 153.813 249.072 142.36 255.123 145.408Z" fill="#67392C"/>
<path d="M245.782 184.216C247.427 185.352 249.488 186.299 252.079 186.905C261.779 189.157 265.504 180.941 266.904 175.3C265.58 174.543 264.332 174.372 263.614 174.297C262.914 174.221 262.176 174.164 261.571 174.126C260.475 173.293 258.848 169.867 258.489 164.566L258.035 164.68L250.377 166.781C250.377 166.781 250.736 169.223 250.907 171.514C251.039 173.312 251.058 175.035 250.718 175.451C250.112 175.584 249.753 175.66 249.753 175.66C249.659 175.83 247.446 179.484 245.782 184.216Z" fill="#FFB27D"/>
<path d="M250.396 166.762C250.396 166.762 250.755 169.204 250.925 171.495C255.255 171.059 257.278 166.932 258.054 164.661L250.396 166.762Z" fill="#ED985F"/>
<path d="M250.301 170.416C250.301 170.416 260.285 167.841 258.584 161.651C256.882 155.46 257.033 150.955 250.604 152.318C244.156 153.7 243.57 156.407 243.626 158.603C243.702 160.818 247.654 170.927 250.301 170.416Z" fill="#FFB27D"/>
<path d="M242.983 155.101C244.004 152.81 245.271 152.905 246.084 153.283C250.698 148.797 255.407 152.261 255.407 152.261C257.297 156.521 261.193 158.187 261.193 158.187C261.193 158.187 259.68 159.796 255.217 159.871C253.856 159.89 252.457 159.303 251.19 158.47C253.648 160.837 256.522 162.257 256.522 162.257C250.906 161.329 246.992 154.93 246.595 154.249C246.141 154.968 245.271 156.483 245.214 157.732C245.158 159.455 245.82 162.749 244.836 162.9C244.855 162.9 241.452 158.527 242.983 155.101Z" fill="#67392C"/>
<path d="M247.427 175.149C247.427 175.149 264.18 171.078 271.479 177.098L267.83 227.947L235.041 220.015C235.041 220.015 235.968 216.797 242.245 208.24C248.542 199.683 245.819 187.132 247.427 175.149Z" fill="#FFB27D"/>
<path d="M257.204 222.286C257.204 222.286 257.185 222.457 257.147 222.779C257.128 222.911 257.109 223.082 257.09 223.29C256.958 224.615 256.674 227.133 256.334 230.427C255.426 239.059 254.027 252.898 253.063 263.84C252.306 272.397 251.834 279.155 252.098 280.234C252.874 283.509 252.098 322.582 252.098 322.582C249.319 323.926 245.083 322.582 245.083 322.582C245.083 322.582 237.671 287.371 238.692 282.468C239.732 277.565 237.992 273.4 237.992 273.4C232.225 246.537 232.868 231.638 234.002 224.52C234.343 222.438 234.721 221.037 234.985 220.166C235.212 219.428 235.383 219.087 235.383 219.087C248.109 215.68 257.204 222.286 257.204 222.286Z" fill="#6C3E4B"/>
<path d="M273.73 191.599C272.917 197.714 269.684 205.211 268.53 209.243C268.53 209.243 270.459 223.233 268.625 227.076C268.417 227.511 268.152 227.814 267.831 227.966C261.004 230.938 234.38 228.06 233.246 219.447C232.83 216.323 243.381 205.343 244.005 203.999C244.27 203.45 244.534 201.652 243.286 197.96C241.528 203.374 231.865 201.822 231.865 201.822C233 199.872 235.836 186.412 238.994 180.336C241.377 175.773 247.711 175.111 247.711 175.111C247.711 175.111 250.358 179.294 256.731 178.707C263.122 178.121 264.276 174.202 264.276 174.202C264.276 174.202 269.929 174.959 271.688 176.36C271.991 176.587 274.808 183.573 273.73 191.599Z" fill="#F99746"/>
<path d="M268.529 209.224C268.529 209.224 270.458 223.214 268.624 227.057C263.651 224.558 259.717 217.781 260.625 210.246C261.287 204.681 262.289 203.393 265.277 200.213C267.47 197.866 272.519 197.733 272.122 198.85C270.95 202.182 269.153 207.104 268.529 209.224Z" fill="#ED7D2B"/>
<path d="M247.749 192.678L259.17 211.022H239.75L228.858 193.076L247.749 192.678Z" fill="#1C468A"/>
<path d="M258.565 210.095L258.773 209.451L247.957 192.111L247.749 192.679L258.565 210.095Z" fill="#EFDECE"/>
<path d="M247.957 192.111L229.671 192.622L228.858 193.076L247.749 192.679L247.957 192.111Z" fill="#FCECDB"/>
<path d="M228.858 193.076L218.609 187.529L230.56 206.328L239.75 211.023L228.858 193.076Z" fill="#163560"/>
<path d="M283.184 205.93C282.088 206.441 279.27 209.754 278.249 210.095C273.73 211.609 254.442 207.577 254.442 207.577L255.047 204.189C255.047 204.189 273.957 204.7 276.037 204.132C276.434 204.018 278.476 200.819 279.251 200.365L283.184 205.93Z" fill="#FFB27D"/>
<path d="M255.048 204.188C255.048 204.188 252.76 202.333 251.228 202.75C249.677 203.166 247.427 205.116 246.576 205.589C245.725 206.044 243.437 207.71 244.61 208.713C245.763 209.716 249.375 208.845 250.812 208.088C252.249 207.331 254.461 207.577 254.461 207.577L255.048 204.188Z" fill="#FFB27D"/>
<path d="M251.662 202.693C251.662 202.693 248.883 202.371 248.126 202.371C247.37 202.39 247.578 202.56 247.994 203.147C248.41 203.734 249.847 203.961 249.923 204.169C249.998 204.378 251.662 202.693 251.662 202.693Z" fill="#FFB27D"/>
<path d="M264.294 174.183C264.294 174.183 272.519 175.167 274.77 178.688C277.625 183.156 284.394 200.932 284.167 205.4C284.167 205.4 279.232 213.805 262.289 212.461C262.289 212.461 260.531 206.233 264.086 204.169C264.086 204.169 272.784 202.617 273.786 201.746L266.695 188.835L264.294 174.183Z" fill="#F99746"/>
<path d="M231.505 199.778C231.259 198.737 228.99 199.38 228.234 199.986C228.045 200.137 227.856 200.384 227.648 200.667C227.629 200.497 227.61 200.327 227.591 200.194C227.553 199.702 226.986 198.831 226.834 199.494C226.702 200.156 226.456 202.882 226.456 202.882C226.437 205.097 227.856 206.006 228.763 205.287C229.671 204.586 231.751 200.819 231.505 199.778Z" fill="#FFB27D"/>
<g clip-path="url(#clip1)">
<path d="M69.7776 186.312C69.6642 186.24 69.4941 186.14 69.3098 186.039L66.2478 183.517C66.2478 183.517 65.8651 183.746 66.2478 184.162C66.3045 184.219 66.3612 184.291 66.4463 184.377L65.2839 183.459C65.2839 183.459 65.0712 183.674 65.213 184.004C65.3122 184.248 66.4037 185.179 67.0133 185.71C66.6447 185.523 66.1202 185.136 65.3406 184.334C64.8586 183.846 65.0145 184.577 65.0854 184.907C65.213 185.48 66.7298 187.43 67.2685 188.304C67.8072 189.178 68.0765 190.038 67.6938 189.666C67.3252 189.293 65.2839 188.017 65.0712 188.304C64.8586 188.591 66.0919 189.666 66.6731 190.526C67.2543 191.386 67.9064 192.848 69.9903 193.177C72.0741 193.507 72.4285 192.432 72.4285 192.432C72.4285 192.432 70.7416 186.914 69.7776 186.312Z" fill="#FFB27D"/>
<path d="M134.179 238.958C134.179 238.958 133.668 243.946 133.116 244.892C132.563 245.838 129.969 248.576 129.175 249.45C129.118 249.507 128.608 249.049 128.99 248.389C130.564 245.709 130.124 246.354 129.586 244.591C129.316 243.717 129.146 246.225 128.707 246.282C128.267 246.34 128.423 243.645 128.409 242.814C128.395 241.997 130.649 241.61 130.904 238.643C131.074 236.736 134.179 238.958 134.179 238.958Z" fill="#FFB27D"/>
<path d="M118.699 187.745C118.699 187.745 114.588 208.113 92.0056 214.764C84.9602 216.856 68.9414 193.378 68.9414 193.378C68.9414 193.378 69.5084 191.214 73.0382 191.716C73.0382 191.716 88.6318 202.15 90.6022 203.283C92.3458 204.286 103.8 190.34 109.031 188.104C114.262 185.868 118.699 187.745 118.699 187.745Z" fill="#FF9336"/>
<path d="M145.661 315.799C145.661 315.799 148.468 318.379 147.915 320.228C147.362 322.063 144.839 323.295 144.499 325.531C144.159 327.782 142.784 329 141.565 329C140.331 329 135.696 329 135.696 329C135.696 329 134.788 327.423 136.972 326.95C139.155 326.477 139.977 323.84 139.849 321.389C139.707 318.938 140.048 315.67 140.048 315.67L144.697 314.581L145.661 315.799Z" fill="#583039"/>
<path d="M111.285 322.478C111.285 322.478 111.781 328.369 110.562 328.971L94.8125 328.943C94.8125 328.943 94.8125 327.108 97.3358 326.692C99.8591 326.291 104.31 324.786 105.062 321.446C105.827 318.135 111.285 322.478 111.285 322.478Z" fill="#583039"/>
<path d="M98.0029 239.36C98.0029 239.36 98.8393 249.68 99.8033 262.078C101.136 278.92 102.724 299.603 102.879 303.53C103.149 310.338 104.24 321.217 104.24 321.217C104.24 321.217 106.835 323.797 112.037 322.708C112.037 322.708 116.673 307.171 117.991 290.73C118.005 290.458 118.033 290.186 118.048 289.913C119.281 273.172 121.195 237.926 121.195 237.926L98.0029 239.36Z" fill="#6C3E4B"/>
<path d="M98.0029 239.36C98.0029 239.36 98.8393 249.68 99.8033 262.078L117.991 290.73C118.005 290.458 118.033 290.186 118.048 289.913C119.281 273.172 121.195 237.926 121.195 237.926L98.0029 239.36Z" fill="#583039"/>
<path d="M101.787 240.592C101.787 240.592 116.757 277.945 126.595 295.503C136.433 313.062 139.509 317.964 139.509 317.964C139.509 317.964 145.151 315.713 145.662 314.194C145.662 314.194 141.905 280.31 135.313 272.04C131.585 267.367 127.219 253.363 127.006 248.461C126.808 243.559 125.674 233.87 125.674 233.87L101.787 240.592Z" fill="#6C3E4B"/>
<path d="M121.478 183.029C121.478 183.029 111.356 187.974 105.516 186.14C105.516 186.14 106.947 184.305 109.471 182.943C109.272 181.754 109.116 180.736 109.017 179.862C108.776 177.855 108.776 176.708 108.776 176.708L112.689 173.598L116.389 170.617C116.091 178.973 121.478 183.029 121.478 183.029Z" fill="#FFB27D"/>
<path d="M126.822 235.762C126.85 236.392 125.517 237.109 124.936 237.367C120.598 239.288 116.558 240.635 111.979 241.079C106.564 241.638 100.171 240.406 97.9736 240.449C97.7468 240.449 97.5483 240.363 97.364 240.205C97.2081 240.09 97.0947 233.497 97.2081 225.198C97.2081 224.868 97.2081 224.524 97.2364 224.195V224.08C97.279 220.841 97.3924 217.444 97.5483 214.047C97.8602 206.579 98.4414 199.384 99.4337 195.399C100.624 190.698 103.318 187.602 105.77 185.337L107.783 183.545C109.81 183.947 111.937 183.832 114.077 182.786C116.416 181.653 118.926 180.421 119.337 180.736C122.385 183.001 124.454 188.075 125.56 194.553C125.56 194.582 125.574 194.611 125.574 194.654C126.198 198.366 126.496 202.508 126.481 206.851C126.481 208.457 126.439 210.119 126.354 211.753C125.9 219.149 126.198 225.728 126.496 230.286C126.552 231.189 126.609 232.006 126.666 232.737C126.737 234.042 126.793 235.045 126.822 235.762Z" fill="#FFB94A"/>
<path d="M126.467 230.286C109.683 210.693 120.088 196.445 120.088 196.445L125.545 194.654C126.169 198.366 126.467 202.508 126.453 206.851C126.453 208.457 126.41 210.119 126.325 211.753C125.871 219.149 126.183 225.728 126.467 230.286Z" fill="#FF9336"/>
<path d="M116.459 173.813C116.459 173.813 113.893 178.529 109.031 179.847C108.79 177.841 108.79 176.694 108.79 176.694L112.703 173.584L116.459 173.813Z" fill="#ED985F"/>
<path d="M106.99 176.565C106.99 176.565 116.644 178.156 117.551 172.165C118.458 166.159 120.315 162.318 114.191 161.042C108.067 159.767 106.508 161.874 105.728 163.809C104.934 165.729 104.509 175.992 106.99 176.565Z" fill="#FFB27D"/>
<path d="M121.066 160.311C121.151 160.211 121.349 160.125 121.803 160.096C121.803 160.096 121.448 159.867 120.966 159.853C120.867 159.222 120.541 158.104 119.464 157.832C119.464 157.832 120.045 158.147 120.116 158.821C118.868 157.531 116.189 156.585 108.789 157.172C99.0362 157.946 102.254 164.267 103.516 165.027C104.777 165.787 107.953 163.723 110.306 163.909C112.659 164.095 113.113 167.535 113.907 168.008C114.701 168.481 114.389 167.65 115.466 167.148C116.543 166.661 116.643 168.467 116.331 169.642C116.019 170.818 117.507 172.366 117.507 172.366C117.507 172.366 117.507 172.366 119.01 170.732C120.513 169.098 121.93 162.175 121.236 160.698C121.193 160.584 121.136 160.455 121.066 160.311Z" fill="#67392C"/>
<path d="M119.323 180.708C119.323 180.708 125.433 183.632 128.367 188.132C132.917 195.113 138.177 220.54 138.276 222.905C138.375 225.256 134.434 241.882 134.434 241.882C134.434 241.882 130.437 241.61 129.402 239.574C129.402 239.574 130.196 222.489 129.7 221.386C129.189 220.282 113.029 198.467 114.843 193.808C116.658 189.164 119.323 180.708 119.323 180.708Z" fill="#FFB84A"/>
<path d="M133.115 244.892L130.223 249.78C130.223 249.78 129.883 249.637 129.926 249.278C129.982 248.934 130.819 246.283 130.819 246.283L133.115 244.892Z" fill="#FFB27D"/>
<path d="M130.224 245.035C130.224 245.035 128.14 247.443 128.594 247.988L130.097 246.813L130.224 245.035Z" fill="#FFB27D"/>
</g>
</g>
<defs>
<clipPath id="clip0">
<rect width="536" height="329" fill="white"/>
</clipPath>
<clipPath id="clip1">
<rect width="83" height="172" fill="white" transform="translate(65 157)"/>
</clipPath>
</defs>
</svg>
